<mxfile host="Electron" modified="2024-04-30T09:24:33.322Z" agent="Mozilla/5.0 (X11; Linux x86_64) AppleWebKit/537.36 (KHTML, like Gecko) draw.io/24.2.5 Chrome/120.0.6099.109 Electron/28.1.0 Safari/537.36" etag="p3S9OUVEpTezY2wuYJfC" version="24.2.5" type="device" pages="6">
  <diagram name="Page-1" id="I1BoHD560CAjnoMMXsjY">
    <mxGraphModel dx="1434" dy="778" grid="1" gridSize="10" guides="1" tooltips="1" connect="1" arrows="1" fold="1" page="1" pageScale="1" pageWidth="850" pageHeight="1100" math="0" shadow="0">
      <root>
        <mxCell id="0" />
        <mxCell id="1" parent="0" />
        <mxCell id="VyHnozQDQiar7dkH6PeD-1" value="" style="rounded=0;whiteSpace=wrap;html=1;strokeColor=#b85450;strokeWidth=1;fontFamily=Courier New;fontSize=14;fillColor=#f8cecc;" parent="1" vertex="1">
          <mxGeometry x="540" y="441" width="100" height="240" as="geometry" />
        </mxCell>
        <mxCell id="VyHnozQDQiar7dkH6PeD-5" value="" style="shape=manualInput;whiteSpace=wrap;html=1;strokeColor=#6c8ebf;strokeWidth=1;fontFamily=Courier New;fontSize=14;fillColor=#dae8fc;size=80;" parent="1" vertex="1">
          <mxGeometry x="460" y="440" width="80" height="240" as="geometry" />
        </mxCell>
        <mxCell id="VyHnozQDQiar7dkH6PeD-6" value="" style="shape=manualInput;whiteSpace=wrap;html=1;strokeColor=#6c8ebf;strokeWidth=1;fontFamily=Courier New;fontSize=14;fillColor=#dae8fc;direction=east;flipH=1;size=80;" parent="1" vertex="1">
          <mxGeometry x="640" y="440" width="80" height="240" as="geometry" />
        </mxCell>
        <mxCell id="VyHnozQDQiar7dkH6PeD-8" value="" style="shape=manualInput;whiteSpace=wrap;html=1;strokeColor=#6c8ebf;strokeWidth=1;fontFamily=Courier New;fontSize=14;fillColor=#dae8fc;size=80;direction=north;flipV=1;flipH=1;" parent="1" vertex="1">
          <mxGeometry x="300" y="260" width="240" height="80" as="geometry" />
        </mxCell>
        <mxCell id="VyHnozQDQiar7dkH6PeD-9" value="" style="shape=manualInput;whiteSpace=wrap;html=1;strokeColor=#6c8ebf;strokeWidth=1;fontFamily=Courier New;fontSize=14;fillColor=#dae8fc;direction=south;flipH=0;size=80;flipV=1;" parent="1" vertex="1">
          <mxGeometry x="300" y="440" width="240" height="80" as="geometry" />
        </mxCell>
        <mxCell id="VyHnozQDQiar7dkH6PeD-11" value="" style="edgeStyle=none;orthogonalLoop=1;jettySize=auto;html=1;endArrow=classic;startArrow=classic;endSize=8;startSize=8;rounded=1;strokeColor=#6c8ebf;fontFamily=Courier New;fillColor=#dae8fc;" parent="1" edge="1">
          <mxGeometry width="100" relative="1" as="geometry">
            <mxPoint x="460" y="800" as="sourcePoint" />
            <mxPoint x="720" y="800" as="targetPoint" />
            <Array as="points" />
          </mxGeometry>
        </mxCell>
        <mxCell id="VyHnozQDQiar7dkH6PeD-23" value="MainWidth" style="edgeLabel;html=1;align=center;verticalAlign=middle;resizable=0;points=[];strokeColor=#6c8ebf;strokeWidth=1;fontFamily=Courier New;fontSize=14;fillColor=#dae8fc;" parent="VyHnozQDQiar7dkH6PeD-11" vertex="1" connectable="0">
          <mxGeometry x="0.0195" y="1" relative="1" as="geometry">
            <mxPoint x="-3" y="11" as="offset" />
          </mxGeometry>
        </mxCell>
        <mxCell id="VyHnozQDQiar7dkH6PeD-17" value="" style="edgeStyle=none;orthogonalLoop=1;jettySize=auto;html=1;endArrow=classic;startArrow=classic;endSize=8;startSize=8;rounded=1;strokeColor=#6c8ebf;fontFamily=Courier New;fillColor=#dae8fc;strokeWidth=3;" parent="1" edge="1">
          <mxGeometry width="100" relative="1" as="geometry">
            <mxPoint x="460" y="720" as="sourcePoint" />
            <mxPoint x="540" y="720" as="targetPoint" />
            <Array as="points" />
          </mxGeometry>
        </mxCell>
        <mxCell id="VyHnozQDQiar7dkH6PeD-24" value="SubWidth" style="edgeLabel;html=1;align=center;verticalAlign=middle;resizable=0;points=[];strokeColor=#6c8ebf;strokeWidth=1;fontFamily=Courier New;fontSize=14;fillColor=#dae8fc;" parent="VyHnozQDQiar7dkH6PeD-17" vertex="1" connectable="0">
          <mxGeometry x="-0.0006" y="2" relative="1" as="geometry">
            <mxPoint y="-18" as="offset" />
          </mxGeometry>
        </mxCell>
        <mxCell id="VyHnozQDQiar7dkH6PeD-18" value="" style="edgeStyle=none;orthogonalLoop=1;jettySize=auto;html=1;endArrow=classic;startArrow=classic;endSize=8;startSize=8;rounded=1;strokeColor=#6c8ebf;fontFamily=Courier New;fillColor=#dae8fc;strokeWidth=3;" parent="1" edge="1">
          <mxGeometry width="100" relative="1" as="geometry">
            <mxPoint x="640" y="720" as="sourcePoint" />
            <mxPoint x="720" y="720" as="targetPoint" />
            <Array as="points" />
          </mxGeometry>
        </mxCell>
        <mxCell id="VyHnozQDQiar7dkH6PeD-19" value="" style="rounded=0;whiteSpace=wrap;html=1;strokeColor=#b85450;strokeWidth=1;fontFamily=Courier New;fontSize=14;fillColor=#f8cecc;direction=south;" parent="1" vertex="1">
          <mxGeometry x="300" y="340" width="240" height="100" as="geometry" />
        </mxCell>
        <mxCell id="VyHnozQDQiar7dkH6PeD-20" value="" style="edgeStyle=none;orthogonalLoop=1;jettySize=auto;html=1;endArrow=classic;startArrow=classic;endSize=8;startSize=8;rounded=1;strokeColor=#b85450;fontFamily=Courier New;fillColor=#f8cecc;strokeWidth=3;" parent="1" edge="1">
          <mxGeometry width="100" relative="1" as="geometry">
            <mxPoint x="540" y="760" as="sourcePoint" />
            <mxPoint x="640" y="760" as="targetPoint" />
            <Array as="points" />
          </mxGeometry>
        </mxCell>
        <mxCell id="VyHnozQDQiar7dkH6PeD-22" value="GrooveWidth" style="edgeLabel;html=1;align=center;verticalAlign=middle;resizable=0;points=[];strokeColor=#6c8ebf;strokeWidth=1;fontFamily=Courier New;fontSize=14;fillColor=#dae8fc;" parent="VyHnozQDQiar7dkH6PeD-20" vertex="1" connectable="0">
          <mxGeometry x="-0.1447" y="1" relative="1" as="geometry">
            <mxPoint x="7" y="-19" as="offset" />
          </mxGeometry>
        </mxCell>
        <mxCell id="VyHnozQDQiar7dkH6PeD-25" value="SubWidth" style="edgeLabel;html=1;align=center;verticalAlign=middle;resizable=0;points=[];strokeColor=#6c8ebf;strokeWidth=1;fontFamily=Courier New;fontSize=14;fillColor=#dae8fc;" parent="1" vertex="1" connectable="0">
          <mxGeometry x="680" y="700" as="geometry" />
        </mxCell>
        <mxCell id="VyHnozQDQiar7dkH6PeD-27" style="edgeStyle=orthogonalEdgeStyle;rounded=1;orthogonalLoop=1;jettySize=auto;html=1;strokeColor=#9673a6;fontFamily=Courier New;fillColor=#e1d5e7;dashed=1;strokeWidth=5;" parent="1" source="VyHnozQDQiar7dkH6PeD-26" edge="1">
          <mxGeometry relative="1" as="geometry">
            <mxPoint x="990" y="390" as="targetPoint" />
          </mxGeometry>
        </mxCell>
        <mxCell id="VyHnozQDQiar7dkH6PeD-28" style="edgeStyle=orthogonalEdgeStyle;rounded=1;orthogonalLoop=1;jettySize=auto;html=1;strokeColor=#9673a6;fontFamily=Courier New;fillColor=#e1d5e7;dashed=1;strokeWidth=5;" parent="1" source="VyHnozQDQiar7dkH6PeD-26" edge="1">
          <mxGeometry relative="1" as="geometry">
            <mxPoint x="590" y="910" as="targetPoint" />
          </mxGeometry>
        </mxCell>
        <mxCell id="VyHnozQDQiar7dkH6PeD-26" value="" style="shape=waypoint;sketch=0;size=6;pointerEvents=1;points=[];fillColor=none;resizable=0;rotatable=0;perimeter=centerPerimeter;snapToPoint=1;strokeColor=#6c8ebf;strokeWidth=1;fontFamily=Courier New;fontSize=14;" parent="1" vertex="1">
          <mxGeometry x="580" y="380" width="20" height="20" as="geometry" />
        </mxCell>
        <mxCell id="VyHnozQDQiar7dkH6PeD-29" value="&lt;font style=&quot;font-size: 35px;&quot;&gt;+&lt;/font&gt;" style="text;html=1;align=center;verticalAlign=middle;resizable=0;points=[];autosize=1;strokeColor=none;fillColor=none;fontFamily=Courier New;fontSize=14;" parent="1" vertex="1">
          <mxGeometry x="980" y="350" width="40" height="60" as="geometry" />
        </mxCell>
        <mxCell id="VyHnozQDQiar7dkH6PeD-30" value="&lt;font style=&quot;font-size: 35px;&quot;&gt;+&lt;/font&gt;" style="text;html=1;align=center;verticalAlign=middle;resizable=0;points=[];autosize=1;strokeColor=none;fillColor=none;fontFamily=Courier New;fontSize=14;" parent="1" vertex="1">
          <mxGeometry x="600" y="890" width="40" height="60" as="geometry" />
        </mxCell>
        <mxCell id="VyHnozQDQiar7dkH6PeD-32" value="" style="rounded=0;whiteSpace=wrap;html=1;strokeColor=#b85450;strokeWidth=1;fontFamily=Courier New;fontSize=14;fillColor=#f8cecc;direction=west;" parent="1" vertex="1">
          <mxGeometry x="1830" y="555" width="100" height="240" as="geometry" />
        </mxCell>
        <mxCell id="VyHnozQDQiar7dkH6PeD-33" value="Shape 1" style="text;html=1;align=center;verticalAlign=middle;resizable=0;points=[];autosize=1;strokeColor=none;fillColor=none;fontFamily=Courier New;fontSize=14;" parent="1" vertex="1">
          <mxGeometry x="1045" y="838" width="80" height="30" as="geometry" />
        </mxCell>
        <mxCell id="VyHnozQDQiar7dkH6PeD-34" value="Shape 2" style="text;html=1;align=center;verticalAlign=middle;resizable=0;points=[];autosize=1;strokeColor=none;fillColor=none;fontFamily=Courier New;fontSize=14;" parent="1" vertex="1">
          <mxGeometry x="1840" y="860" width="80" height="30" as="geometry" />
        </mxCell>
        <mxCell id="VyHnozQDQiar7dkH6PeD-37" value="0" style="text;html=1;align=center;verticalAlign=middle;resizable=0;points=[];autosize=1;strokeColor=none;fillColor=none;fontFamily=Courier New;fontSize=14;" parent="1" vertex="1">
          <mxGeometry x="265" y="428" width="30" height="30" as="geometry" />
        </mxCell>
        <mxCell id="VyHnozQDQiar7dkH6PeD-38" value="1" style="text;html=1;align=center;verticalAlign=middle;resizable=0;points=[];autosize=1;strokeColor=none;fillColor=none;fontFamily=Courier New;fontSize=14;" parent="1" vertex="1">
          <mxGeometry x="500" y="440" width="30" height="30" as="geometry" />
        </mxCell>
        <mxCell id="VyHnozQDQiar7dkH6PeD-39" value="2" style="text;html=1;align=center;verticalAlign=middle;resizable=0;points=[];autosize=1;strokeColor=none;fillColor=none;fontFamily=Courier New;fontSize=14;" parent="1" vertex="1">
          <mxGeometry x="510" y="650" width="30" height="30" as="geometry" />
        </mxCell>
        <mxCell id="VyHnozQDQiar7dkH6PeD-40" value="3" style="text;html=1;align=center;verticalAlign=middle;resizable=0;points=[];autosize=1;strokeColor=none;fillColor=none;fontFamily=Courier New;fontSize=14;" parent="1" vertex="1">
          <mxGeometry x="420" y="660" width="30" height="30" as="geometry" />
        </mxCell>
        <mxCell id="VyHnozQDQiar7dkH6PeD-41" value="4" style="text;html=1;align=center;verticalAlign=middle;resizable=0;points=[];autosize=1;strokeColor=none;fillColor=none;fontFamily=Courier New;fontSize=14;" parent="1" vertex="1">
          <mxGeometry x="425" y="528" width="30" height="30" as="geometry" />
        </mxCell>
        <mxCell id="VyHnozQDQiar7dkH6PeD-42" value="5" style="text;html=1;align=center;verticalAlign=middle;resizable=0;points=[];autosize=1;strokeColor=none;fillColor=none;fontFamily=Courier New;fontSize=14;" parent="1" vertex="1">
          <mxGeometry x="265" y="518" width="30" height="30" as="geometry" />
        </mxCell>
        <mxCell id="VyHnozQDQiar7dkH6PeD-43" value="" style="shape=manualInput;whiteSpace=wrap;html=1;strokeColor=#6c8ebf;strokeWidth=1;fontFamily=Courier New;fontSize=14;fillColor=#dae8fc;size=80;" parent="1" vertex="1">
          <mxGeometry x="1040" y="562" width="80" height="240" as="geometry" />
        </mxCell>
        <mxCell id="VyHnozQDQiar7dkH6PeD-44" value="" style="shape=manualInput;whiteSpace=wrap;html=1;strokeColor=#6c8ebf;strokeWidth=1;fontFamily=Courier New;fontSize=14;fillColor=#dae8fc;direction=south;flipH=0;size=80;flipV=1;" parent="1" vertex="1">
          <mxGeometry x="880" y="562" width="240" height="80" as="geometry" />
        </mxCell>
        <mxCell id="VyHnozQDQiar7dkH6PeD-45" value="0" style="text;html=1;align=center;verticalAlign=middle;resizable=0;points=[];autosize=1;strokeColor=none;fillColor=none;fontFamily=Courier New;fontSize=14;" parent="1" vertex="1">
          <mxGeometry x="850" y="550" width="30" height="30" as="geometry" />
        </mxCell>
        <mxCell id="VyHnozQDQiar7dkH6PeD-46" value="1" style="text;html=1;align=center;verticalAlign=middle;resizable=0;points=[];autosize=1;strokeColor=none;fillColor=none;fontFamily=Courier New;fontSize=14;" parent="1" vertex="1">
          <mxGeometry x="1085" y="562" width="30" height="30" as="geometry" />
        </mxCell>
        <mxCell id="VyHnozQDQiar7dkH6PeD-47" value="2" style="text;html=1;align=center;verticalAlign=middle;resizable=0;points=[];autosize=1;strokeColor=none;fillColor=none;fontFamily=Courier New;fontSize=14;" parent="1" vertex="1">
          <mxGeometry x="1095" y="772" width="30" height="30" as="geometry" />
        </mxCell>
        <mxCell id="VyHnozQDQiar7dkH6PeD-48" value="3" style="text;html=1;align=center;verticalAlign=middle;resizable=0;points=[];autosize=1;strokeColor=none;fillColor=none;fontFamily=Courier New;fontSize=14;" parent="1" vertex="1">
          <mxGeometry x="1005" y="782" width="30" height="30" as="geometry" />
        </mxCell>
        <mxCell id="VyHnozQDQiar7dkH6PeD-49" value="4" style="text;html=1;align=center;verticalAlign=middle;resizable=0;points=[];autosize=1;strokeColor=none;fillColor=none;fontFamily=Courier New;fontSize=14;" parent="1" vertex="1">
          <mxGeometry x="1010" y="650" width="30" height="30" as="geometry" />
        </mxCell>
        <mxCell id="VyHnozQDQiar7dkH6PeD-50" value="5" style="text;html=1;align=center;verticalAlign=middle;resizable=0;points=[];autosize=1;strokeColor=none;fillColor=none;fontFamily=Courier New;fontSize=14;" parent="1" vertex="1">
          <mxGeometry x="850" y="640" width="30" height="30" as="geometry" />
        </mxCell>
        <mxCell id="VyHnozQDQiar7dkH6PeD-51" value="&lt;div&gt;&lt;b&gt;Side: X-Z+&lt;/b&gt;&lt;br&gt;&lt;/div&gt;Layer 0 (bottom): 0 - 5&lt;div&gt;&lt;br&gt;&lt;/div&gt;" style="text;html=1;align=left;verticalAlign=middle;resizable=0;points=[];autosize=1;strokeColor=default;fillColor=none;fontFamily=Courier New;fontSize=14;strokeWidth=3;" parent="1" vertex="1">
          <mxGeometry x="910" y="940" width="220" height="60" as="geometry" />
        </mxCell>
        <mxCell id="VyHnozQDQiar7dkH6PeD-53" value="&lt;div&gt;&lt;b&gt;Side: X+Z-&lt;/b&gt;&lt;br&gt;&lt;/div&gt;Layer 0 (bottom): 6 - 11" style="text;html=1;align=left;verticalAlign=middle;resizable=0;points=[];autosize=1;strokeColor=none;fillColor=none;fontFamily=Courier New;fontSize=14;" parent="1" vertex="1">
          <mxGeometry x="1160" y="945" width="230" height="50" as="geometry" />
        </mxCell>
        <mxCell id="VyHnozQDQiar7dkH6PeD-55" value="Z" style="text;html=1;align=center;verticalAlign=middle;resizable=0;points=[];autosize=1;strokeColor=none;fillColor=none;fontFamily=Courier New;fontSize=40;" parent="1" vertex="1">
          <mxGeometry x="550" y="950" width="50" height="60" as="geometry" />
        </mxCell>
        <mxCell id="VyHnozQDQiar7dkH6PeD-56" style="edgeStyle=orthogonalEdgeStyle;rounded=1;orthogonalLoop=1;jettySize=auto;html=1;strokeColor=#9673a6;fontFamily=Courier New;fillColor=#e1d5e7;dashed=1;strokeWidth=5;" parent="1" edge="1">
          <mxGeometry relative="1" as="geometry">
            <mxPoint x="1410" y="520" as="targetPoint" />
            <mxPoint x="1160" y="520" as="sourcePoint" />
          </mxGeometry>
        </mxCell>
        <mxCell id="VyHnozQDQiar7dkH6PeD-57" style="edgeStyle=orthogonalEdgeStyle;rounded=1;orthogonalLoop=1;jettySize=auto;html=1;strokeColor=#9673a6;fontFamily=Courier New;fillColor=#e1d5e7;dashed=1;strokeWidth=5;" parent="1" edge="1">
          <mxGeometry relative="1" as="geometry">
            <mxPoint x="1160" y="858" as="targetPoint" />
            <mxPoint x="1160" y="528" as="sourcePoint" />
          </mxGeometry>
        </mxCell>
        <mxCell id="VyHnozQDQiar7dkH6PeD-58" value="" style="shape=waypoint;sketch=0;size=6;pointerEvents=1;points=[];fillColor=none;resizable=0;rotatable=0;perimeter=centerPerimeter;snapToPoint=1;strokeColor=#6c8ebf;strokeWidth=1;fontFamily=Courier New;fontSize=14;" parent="1" vertex="1">
          <mxGeometry x="1110" y="510" width="20" height="20" as="geometry" />
        </mxCell>
        <mxCell id="VyHnozQDQiar7dkH6PeD-59" value="X" style="text;html=1;align=center;verticalAlign=middle;resizable=0;points=[];autosize=1;strokeColor=none;fillColor=none;fontFamily=Courier New;fontSize=40;" parent="1" vertex="1">
          <mxGeometry x="920" y="340" width="50" height="60" as="geometry" />
        </mxCell>
        <mxCell id="VyHnozQDQiar7dkH6PeD-60" value="X" style="text;html=1;align=center;verticalAlign=middle;resizable=0;points=[];autosize=1;strokeColor=none;fillColor=none;fontFamily=Courier New;fontSize=40;" parent="1" vertex="1">
          <mxGeometry x="1420" y="470" width="50" height="60" as="geometry" />
        </mxCell>
        <mxCell id="VyHnozQDQiar7dkH6PeD-61" value="Z" style="text;html=1;align=center;verticalAlign=middle;resizable=0;points=[];autosize=1;strokeColor=none;fillColor=none;fontFamily=Courier New;fontSize=40;" parent="1" vertex="1">
          <mxGeometry x="1190" y="808" width="50" height="60" as="geometry" />
        </mxCell>
        <mxCell id="VyHnozQDQiar7dkH6PeD-64" value="" style="shape=waypoint;sketch=0;size=6;pointerEvents=1;points=[];fillColor=none;resizable=0;rotatable=0;perimeter=centerPerimeter;snapToPoint=1;strokeColor=#6c8ebf;strokeWidth=1;fontFamily=Courier New;fontSize=14;" parent="1" vertex="1">
          <mxGeometry x="1030" y="508" width="20" height="20" as="geometry" />
        </mxCell>
        <mxCell id="VyHnozQDQiar7dkH6PeD-71" value="" style="shape=waypoint;sketch=0;size=6;pointerEvents=1;points=[];fillColor=none;resizable=0;rotatable=0;perimeter=centerPerimeter;snapToPoint=1;strokeColor=#6c8ebf;strokeWidth=1;fontFamily=Courier New;fontSize=14;" parent="1" vertex="1">
          <mxGeometry x="870" y="510" width="20" height="20" as="geometry" />
        </mxCell>
        <mxCell id="VyHnozQDQiar7dkH6PeD-72" value="" style="edgeStyle=none;orthogonalLoop=1;jettySize=auto;html=1;endArrow=classic;startArrow=classic;endSize=8;startSize=8;rounded=1;strokeColor=#b85450;fontFamily=Courier New;fillColor=#f8cecc;strokeWidth=3;" parent="1" edge="1">
          <mxGeometry width="100" relative="1" as="geometry">
            <mxPoint x="1120" y="499.8" as="sourcePoint" />
            <mxPoint x="1165" y="499.8" as="targetPoint" />
            <Array as="points" />
          </mxGeometry>
        </mxCell>
        <mxCell id="VyHnozQDQiar7dkH6PeD-73" value="" style="edgeStyle=none;orthogonalLoop=1;jettySize=auto;html=1;endArrow=classic;startArrow=classic;endSize=8;startSize=8;rounded=1;strokeColor=#6c8ebf;fontFamily=Courier New;fillColor=#dae8fc;strokeWidth=3;" parent="1" edge="1">
          <mxGeometry width="100" relative="1" as="geometry">
            <mxPoint x="1040" y="458" as="sourcePoint" />
            <mxPoint x="1120" y="458" as="targetPoint" />
            <Array as="points" />
          </mxGeometry>
        </mxCell>
        <mxCell id="VyHnozQDQiar7dkH6PeD-76" value="" style="edgeStyle=none;orthogonalLoop=1;jettySize=auto;html=1;endArrow=classic;startArrow=classic;endSize=8;startSize=8;rounded=1;strokeColor=#d79b00;fontFamily=Courier New;fillColor=#ffe6cc;strokeWidth=7;" parent="1" edge="1">
          <mxGeometry width="100" relative="1" as="geometry">
            <mxPoint x="800" y="440" as="sourcePoint" />
            <mxPoint x="800" y="680" as="targetPoint" />
            <Array as="points" />
          </mxGeometry>
        </mxCell>
        <mxCell id="VyHnozQDQiar7dkH6PeD-77" value="Length" style="edgeLabel;html=1;align=center;verticalAlign=middle;resizable=0;points=[];strokeColor=#6c8ebf;strokeWidth=1;fontFamily=Courier New;fontSize=14;fillColor=#dae8fc;" parent="VyHnozQDQiar7dkH6PeD-76" vertex="1" connectable="0">
          <mxGeometry x="-0.1417" y="-1" relative="1" as="geometry">
            <mxPoint as="offset" />
          </mxGeometry>
        </mxCell>
        <mxCell id="VyHnozQDQiar7dkH6PeD-78" value="" style="edgeStyle=none;orthogonalLoop=1;jettySize=auto;html=1;endArrow=classic;startArrow=classic;endSize=8;startSize=8;rounded=1;strokeColor=#d79b00;fontFamily=Courier New;fillColor=#ffe6cc;strokeWidth=7;" parent="1" edge="1">
          <mxGeometry width="100" relative="1" as="geometry">
            <mxPoint x="1120" y="428" as="sourcePoint" />
            <mxPoint x="880" y="430" as="targetPoint" />
            <Array as="points" />
          </mxGeometry>
        </mxCell>
        <mxCell id="VyHnozQDQiar7dkH6PeD-80" value="" style="shape=manualInput;whiteSpace=wrap;html=1;strokeColor=#6c8ebf;strokeWidth=1;fontFamily=Courier New;fontSize=14;fillColor=#dae8fc;size=80;direction=east;flipH=1;" parent="1" vertex="1">
          <mxGeometry x="1200" y="562" width="80" height="240" as="geometry" />
        </mxCell>
        <mxCell id="VyHnozQDQiar7dkH6PeD-81" value="" style="shape=manualInput;whiteSpace=wrap;html=1;strokeColor=#6c8ebf;strokeWidth=1;fontFamily=Courier New;fontSize=14;fillColor=#dae8fc;direction=south;flipH=1;size=80;flipV=1;" parent="1" vertex="1">
          <mxGeometry x="1200" y="562" width="240" height="80" as="geometry" />
        </mxCell>
        <mxCell id="VyHnozQDQiar7dkH6PeD-82" value="6" style="text;html=1;align=center;verticalAlign=middle;resizable=0;points=[];autosize=1;strokeColor=none;fillColor=none;fontFamily=Courier New;fontSize=14;" parent="1" vertex="1">
          <mxGeometry x="1445" y="538" width="30" height="30" as="geometry" />
        </mxCell>
        <mxCell id="VyHnozQDQiar7dkH6PeD-83" value="7" style="text;html=1;align=center;verticalAlign=middle;resizable=0;points=[];autosize=1;strokeColor=none;fillColor=none;fontFamily=Courier New;fontSize=14;" parent="1" vertex="1">
          <mxGeometry x="1185" y="538" width="30" height="30" as="geometry" />
        </mxCell>
        <mxCell id="VyHnozQDQiar7dkH6PeD-84" value="10" style="text;html=1;align=center;verticalAlign=middle;resizable=0;points=[];autosize=1;strokeColor=none;fillColor=none;fontFamily=Courier New;fontSize=14;" parent="1" vertex="1">
          <mxGeometry x="1275" y="642" width="40" height="30" as="geometry" />
        </mxCell>
        <mxCell id="VyHnozQDQiar7dkH6PeD-85" value="11" style="text;html=1;align=center;verticalAlign=middle;resizable=0;points=[];autosize=1;strokeColor=none;fillColor=none;fontFamily=Courier New;fontSize=14;" parent="1" vertex="1">
          <mxGeometry x="1440" y="618" width="40" height="30" as="geometry" />
        </mxCell>
        <mxCell id="VyHnozQDQiar7dkH6PeD-86" value="9" style="text;html=1;align=center;verticalAlign=middle;resizable=0;points=[];autosize=1;strokeColor=none;fillColor=none;fontFamily=Courier New;fontSize=14;" parent="1" vertex="1">
          <mxGeometry x="1285" y="798" width="30" height="30" as="geometry" />
        </mxCell>
        <mxCell id="VyHnozQDQiar7dkH6PeD-87" value="8" style="text;html=1;align=center;verticalAlign=middle;resizable=0;points=[];autosize=1;strokeColor=none;fillColor=none;fontFamily=Courier New;fontSize=14;" parent="1" vertex="1">
          <mxGeometry x="1200" y="772" width="30" height="30" as="geometry" />
        </mxCell>
        <mxCell id="VyHnozQDQiar7dkH6PeD-90" value="" style="rounded=0;whiteSpace=wrap;html=1;strokeColor=#b85450;strokeWidth=1;fontFamily=Courier New;fontSize=14;fillColor=#f8cecc;direction=east;" parent="1" vertex="1">
          <mxGeometry x="1830" y="215" width="100" height="240" as="geometry" />
        </mxCell>
        <mxCell id="VyHnozQDQiar7dkH6PeD-91" value="0" style="text;html=1;align=center;verticalAlign=middle;resizable=0;points=[];autosize=1;strokeColor=none;fillColor=none;fontFamily=Courier New;fontSize=14;" parent="1" vertex="1">
          <mxGeometry x="1790" y="558" width="30" height="30" as="geometry" />
        </mxCell>
        <mxCell id="VyHnozQDQiar7dkH6PeD-92" value="1" style="text;html=1;align=center;verticalAlign=middle;resizable=0;points=[];autosize=1;strokeColor=none;fillColor=none;fontFamily=Courier New;fontSize=14;" parent="1" vertex="1">
          <mxGeometry x="1940" y="558" width="30" height="30" as="geometry" />
        </mxCell>
        <mxCell id="VyHnozQDQiar7dkH6PeD-93" value="2" style="text;html=1;align=center;verticalAlign=middle;resizable=0;points=[];autosize=1;strokeColor=none;fillColor=none;fontFamily=Courier New;fontSize=14;" parent="1" vertex="1">
          <mxGeometry x="1940" y="768" width="30" height="30" as="geometry" />
        </mxCell>
        <mxCell id="VyHnozQDQiar7dkH6PeD-94" value="3" style="text;html=1;align=center;verticalAlign=middle;resizable=0;points=[];autosize=1;strokeColor=none;fillColor=none;fontFamily=Courier New;fontSize=14;" parent="1" vertex="1">
          <mxGeometry x="1790" y="772" width="30" height="30" as="geometry" />
        </mxCell>
        <mxCell id="VyHnozQDQiar7dkH6PeD-95" style="edgeStyle=orthogonalEdgeStyle;rounded=1;orthogonalLoop=1;jettySize=auto;html=1;strokeColor=#9673a6;fontFamily=Courier New;fillColor=#e1d5e7;dashed=1;strokeWidth=5;" parent="1" edge="1">
          <mxGeometry relative="1" as="geometry">
            <mxPoint x="2130" y="506" as="targetPoint" />
            <mxPoint x="1880" y="506" as="sourcePoint" />
          </mxGeometry>
        </mxCell>
        <mxCell id="VyHnozQDQiar7dkH6PeD-96" style="edgeStyle=orthogonalEdgeStyle;rounded=1;orthogonalLoop=1;jettySize=auto;html=1;strokeColor=#9673a6;fontFamily=Courier New;fillColor=#e1d5e7;dashed=1;strokeWidth=5;" parent="1" edge="1">
          <mxGeometry relative="1" as="geometry">
            <mxPoint x="1880" y="844" as="targetPoint" />
            <mxPoint x="1880" y="514" as="sourcePoint" />
          </mxGeometry>
        </mxCell>
        <mxCell id="VyHnozQDQiar7dkH6PeD-98" value="" style="edgeStyle=none;orthogonalLoop=1;jettySize=auto;html=1;endArrow=classic;startArrow=classic;endSize=8;startSize=8;rounded=1;strokeColor=#b85450;fontFamily=Courier New;fillColor=#f8cecc;strokeWidth=3;" parent="1" edge="1">
          <mxGeometry width="100" relative="1" as="geometry">
            <mxPoint x="1830" y="504.78999999999996" as="sourcePoint" />
            <mxPoint x="1875" y="504.78999999999996" as="targetPoint" />
            <Array as="points" />
          </mxGeometry>
        </mxCell>
        <mxCell id="VyHnozQDQiar7dkH6PeD-101" value="" style="edgeStyle=none;orthogonalLoop=1;jettySize=auto;html=1;endArrow=classic;startArrow=classic;endSize=8;startSize=8;rounded=1;strokeColor=#d79b00;fontFamily=Courier New;fillColor=#ffe6cc;strokeWidth=7;" parent="1" edge="1">
          <mxGeometry width="100" relative="1" as="geometry">
            <mxPoint x="2049.23" y="565" as="sourcePoint" />
            <mxPoint x="2049" y="810" as="targetPoint" />
            <Array as="points" />
          </mxGeometry>
        </mxCell>
        <mxCell id="VyHnozQDQiar7dkH6PeD-102" value="X" style="text;html=1;align=center;verticalAlign=middle;resizable=0;points=[];autosize=1;strokeColor=none;fillColor=none;fontFamily=Courier New;fontSize=40;" parent="1" vertex="1">
          <mxGeometry x="2190" y="478" width="50" height="60" as="geometry" />
        </mxCell>
        <mxCell id="VyHnozQDQiar7dkH6PeD-103" value="Z" style="text;html=1;align=center;verticalAlign=middle;resizable=0;points=[];autosize=1;strokeColor=none;fillColor=none;fontFamily=Courier New;fontSize=40;" parent="1" vertex="1">
          <mxGeometry x="1790" y="818" width="50" height="60" as="geometry" />
        </mxCell>
        <mxCell id="VyHnozQDQiar7dkH6PeD-104" value="4" style="text;html=1;align=center;verticalAlign=middle;resizable=0;points=[];autosize=1;strokeColor=none;fillColor=none;fontFamily=Courier New;fontSize=14;" parent="1" vertex="1">
          <mxGeometry x="1790" y="428" width="30" height="30" as="geometry" />
        </mxCell>
        <mxCell id="VyHnozQDQiar7dkH6PeD-105" value="5" style="text;html=1;align=center;verticalAlign=middle;resizable=0;points=[];autosize=1;strokeColor=none;fillColor=none;fontFamily=Courier New;fontSize=14;" parent="1" vertex="1">
          <mxGeometry x="1940" y="428" width="30" height="30" as="geometry" />
        </mxCell>
        <mxCell id="VyHnozQDQiar7dkH6PeD-106" value="6" style="text;html=1;align=center;verticalAlign=middle;resizable=0;points=[];autosize=1;strokeColor=none;fillColor=none;fontFamily=Courier New;fontSize=14;" parent="1" vertex="1">
          <mxGeometry x="1930" y="215" width="30" height="30" as="geometry" />
        </mxCell>
        <mxCell id="VyHnozQDQiar7dkH6PeD-108" value="7" style="text;html=1;align=center;verticalAlign=middle;resizable=0;points=[];autosize=1;strokeColor=none;fillColor=none;fontFamily=Courier New;fontSize=14;" parent="1" vertex="1">
          <mxGeometry x="1790" y="215" width="30" height="30" as="geometry" />
        </mxCell>
        <mxCell id="VyHnozQDQiar7dkH6PeD-114" value="Shape 3" style="text;html=1;align=center;verticalAlign=middle;resizable=0;points=[];autosize=1;strokeColor=none;fillColor=none;fontFamily=Courier New;fontSize=14;" parent="1" vertex="1">
          <mxGeometry x="2780" y="867.5" width="80" height="30" as="geometry" />
        </mxCell>
        <mxCell id="VyHnozQDQiar7dkH6PeD-115" value="" style="rounded=0;whiteSpace=wrap;html=1;strokeColor=#b85450;strokeWidth=1;fontFamily=Courier New;fontSize=14;fillColor=#f8cecc;direction=north;" parent="1" vertex="1">
          <mxGeometry x="2870" y="462.5" width="240" height="100" as="geometry" />
        </mxCell>
        <mxCell id="VyHnozQDQiar7dkH6PeD-116" value="" style="rounded=0;whiteSpace=wrap;html=1;strokeColor=#b85450;strokeWidth=1;fontFamily=Courier New;fontSize=14;fillColor=#f8cecc;direction=north;" parent="1" vertex="1">
          <mxGeometry x="2530" y="462.5" width="240" height="100" as="geometry" />
        </mxCell>
        <mxCell id="VyHnozQDQiar7dkH6PeD-118" value="0" style="text;html=1;align=center;verticalAlign=middle;resizable=0;points=[];autosize=1;strokeColor=none;fillColor=none;fontFamily=Courier New;fontSize=14;" parent="1" vertex="1">
          <mxGeometry x="2760" y="440" width="30" height="30" as="geometry" />
        </mxCell>
        <mxCell id="VyHnozQDQiar7dkH6PeD-119" value="1" style="text;html=1;align=center;verticalAlign=middle;resizable=0;points=[];autosize=1;strokeColor=none;fillColor=none;fontFamily=Courier New;fontSize=14;" parent="1" vertex="1">
          <mxGeometry x="2760" y="568" width="30" height="30" as="geometry" />
        </mxCell>
        <mxCell id="VyHnozQDQiar7dkH6PeD-120" value="2" style="text;html=1;align=center;verticalAlign=middle;resizable=0;points=[];autosize=1;strokeColor=none;fillColor=none;fontFamily=Courier New;fontSize=14;" parent="1" vertex="1">
          <mxGeometry x="2520" y="568" width="30" height="30" as="geometry" />
        </mxCell>
        <mxCell id="VyHnozQDQiar7dkH6PeD-121" value="3" style="text;html=1;align=center;verticalAlign=middle;resizable=0;points=[];autosize=1;strokeColor=none;fillColor=none;fontFamily=Courier New;fontSize=14;" parent="1" vertex="1">
          <mxGeometry x="2520" y="440" width="30" height="30" as="geometry" />
        </mxCell>
        <mxCell id="VyHnozQDQiar7dkH6PeD-122" style="edgeStyle=orthogonalEdgeStyle;rounded=1;orthogonalLoop=1;jettySize=auto;html=1;strokeColor=#9673a6;fontFamily=Courier New;fillColor=#e1d5e7;dashed=1;strokeWidth=5;" parent="1" edge="1">
          <mxGeometry relative="1" as="geometry">
            <mxPoint x="3070" y="513.5" as="targetPoint" />
            <mxPoint x="2820" y="513.5" as="sourcePoint" />
          </mxGeometry>
        </mxCell>
        <mxCell id="VyHnozQDQiar7dkH6PeD-123" style="edgeStyle=orthogonalEdgeStyle;rounded=1;orthogonalLoop=1;jettySize=auto;html=1;strokeColor=#9673a6;fontFamily=Courier New;fillColor=#e1d5e7;dashed=1;strokeWidth=5;" parent="1" edge="1">
          <mxGeometry relative="1" as="geometry">
            <mxPoint x="2820" y="851.5" as="targetPoint" />
            <mxPoint x="2820" y="521.5" as="sourcePoint" />
          </mxGeometry>
        </mxCell>
        <mxCell id="VyHnozQDQiar7dkH6PeD-124" value="" style="edgeStyle=none;orthogonalLoop=1;jettySize=auto;html=1;endArrow=classic;startArrow=classic;endSize=8;startSize=8;rounded=1;strokeColor=#b85450;fontFamily=Courier New;fillColor=#f8cecc;strokeWidth=3;" parent="1" edge="1">
          <mxGeometry width="100" relative="1" as="geometry">
            <mxPoint x="2770" y="512.29" as="sourcePoint" />
            <mxPoint x="2815" y="512.29" as="targetPoint" />
            <Array as="points" />
          </mxGeometry>
        </mxCell>
        <mxCell id="VyHnozQDQiar7dkH6PeD-125" value="" style="edgeStyle=none;orthogonalLoop=1;jettySize=auto;html=1;endArrow=classic;startArrow=classic;endSize=8;startSize=8;rounded=1;strokeColor=#d79b00;fontFamily=Courier New;fillColor=#ffe6cc;strokeWidth=7;" parent="1" edge="1">
          <mxGeometry width="100" relative="1" as="geometry">
            <mxPoint x="2770" y="417.5" as="sourcePoint" />
            <mxPoint x="2530" y="419.5" as="targetPoint" />
            <Array as="points" />
          </mxGeometry>
        </mxCell>
        <mxCell id="VyHnozQDQiar7dkH6PeD-127" value="X" style="text;html=1;align=center;verticalAlign=middle;resizable=0;points=[];autosize=1;strokeColor=none;fillColor=none;fontFamily=Courier New;fontSize=40;" parent="1" vertex="1">
          <mxGeometry x="3130" y="485.5" width="50" height="60" as="geometry" />
        </mxCell>
        <mxCell id="VyHnozQDQiar7dkH6PeD-128" value="Z" style="text;html=1;align=center;verticalAlign=middle;resizable=0;points=[];autosize=1;strokeColor=none;fillColor=none;fontFamily=Courier New;fontSize=40;" parent="1" vertex="1">
          <mxGeometry x="2730" y="825.5" width="50" height="60" as="geometry" />
        </mxCell>
        <mxCell id="VyHnozQDQiar7dkH6PeD-129" value="4" style="text;html=1;align=center;verticalAlign=middle;resizable=0;points=[];autosize=1;strokeColor=none;fillColor=none;fontFamily=Courier New;fontSize=14;" parent="1" vertex="1">
          <mxGeometry x="2860" y="440" width="30" height="30" as="geometry" />
        </mxCell>
        <mxCell id="VyHnozQDQiar7dkH6PeD-130" value="5" style="text;html=1;align=center;verticalAlign=middle;resizable=0;points=[];autosize=1;strokeColor=none;fillColor=none;fontFamily=Courier New;fontSize=14;" parent="1" vertex="1">
          <mxGeometry x="2860" y="568" width="30" height="30" as="geometry" />
        </mxCell>
        <mxCell id="VyHnozQDQiar7dkH6PeD-131" value="6" style="text;html=1;align=center;verticalAlign=middle;resizable=0;points=[];autosize=1;strokeColor=none;fillColor=none;fontFamily=Courier New;fontSize=14;" parent="1" vertex="1">
          <mxGeometry x="2870" y="222.5" width="30" height="30" as="geometry" />
        </mxCell>
        <mxCell id="VyHnozQDQiar7dkH6PeD-132" value="7" style="text;html=1;align=center;verticalAlign=middle;resizable=0;points=[];autosize=1;strokeColor=none;fillColor=none;fontFamily=Courier New;fontSize=14;" parent="1" vertex="1">
          <mxGeometry x="2730" y="222.5" width="30" height="30" as="geometry" />
        </mxCell>
        <mxCell id="VyHnozQDQiar7dkH6PeD-137" value="6" style="text;html=1;align=center;verticalAlign=middle;resizable=0;points=[];autosize=1;strokeColor=none;fillColor=none;fontFamily=Courier New;fontSize=14;" parent="1" vertex="1">
          <mxGeometry x="3090" y="562.5" width="30" height="30" as="geometry" />
        </mxCell>
        <mxCell id="VyHnozQDQiar7dkH6PeD-138" value="7" style="text;html=1;align=center;verticalAlign=middle;resizable=0;points=[];autosize=1;strokeColor=none;fillColor=none;fontFamily=Courier New;fontSize=14;" parent="1" vertex="1">
          <mxGeometry x="3090" y="441" width="30" height="30" as="geometry" />
        </mxCell>
      </root>
    </mxGraphModel>
  </diagram>
  <diagram id="G2fv7nuVcpmUrp8Q4I6D" name="Page-2">
    <mxGraphModel dx="1434" dy="843" grid="1" gridSize="10" guides="1" tooltips="1" connect="1" arrows="1" fold="1" page="1" pageScale="1" pageWidth="850" pageHeight="1100" math="0" shadow="0">
      <root>
        <mxCell id="0" />
        <mxCell id="1" parent="0" />
        <mxCell id="NtLDhn3vMmtNx0MF81nD-3" style="edgeStyle=orthogonalEdgeStyle;rounded=1;orthogonalLoop=1;jettySize=auto;html=1;strokeColor=#b85450;fontFamily=Courier New;fillColor=#f8cecc;strokeWidth=3;" parent="1" source="A5t22kL17MTPCg51M2_L-11" edge="1">
          <mxGeometry relative="1" as="geometry">
            <mxPoint x="480" y="80" as="targetPoint" />
          </mxGeometry>
        </mxCell>
        <mxCell id="NtLDhn3vMmtNx0MF81nD-4" style="edgeStyle=orthogonalEdgeStyle;rounded=1;orthogonalLoop=1;jettySize=auto;html=1;strokeColor=#b85450;fontFamily=Courier New;fillColor=#f8cecc;strokeWidth=3;" parent="1" source="A5t22kL17MTPCg51M2_L-6" edge="1">
          <mxGeometry relative="1" as="geometry">
            <mxPoint x="200" y="360" as="targetPoint" />
          </mxGeometry>
        </mxCell>
        <mxCell id="NtLDhn3vMmtNx0MF81nD-2" value="" style="shape=waypoint;sketch=0;size=6;pointerEvents=1;points=[];fillColor=none;resizable=0;rotatable=0;perimeter=centerPerimeter;snapToPoint=1;strokeColor=#6c8ebf;strokeWidth=1;fontFamily=Courier New;fontSize=14;" parent="1" vertex="1">
          <mxGeometry x="190" y="70" width="20" height="20" as="geometry" />
        </mxCell>
        <mxCell id="A5t22kL17MTPCg51M2_L-1" value="X" style="text;html=1;align=center;verticalAlign=middle;resizable=0;points=[];autosize=1;strokeColor=none;fillColor=none;fontFamily=Courier New;fontSize=30;fontStyle=1" parent="1" vertex="1">
          <mxGeometry x="480" y="28" width="40" height="50" as="geometry" />
        </mxCell>
        <mxCell id="A5t22kL17MTPCg51M2_L-2" value="Z" style="text;html=1;align=center;verticalAlign=middle;resizable=0;points=[];autosize=1;strokeColor=none;fillColor=none;fontFamily=Courier New;fontSize=30;fontStyle=1" parent="1" vertex="1">
          <mxGeometry x="140" y="320" width="40" height="50" as="geometry" />
        </mxCell>
        <mxCell id="A5t22kL17MTPCg51M2_L-4" value="" style="shape=waypoint;sketch=0;size=6;pointerEvents=1;points=[];fillColor=none;resizable=0;rotatable=0;perimeter=centerPerimeter;snapToPoint=1;strokeColor=#6c8ebf;strokeWidth=1;fontFamily=Courier New;fontSize=14;" parent="1" vertex="1">
          <mxGeometry x="150" y="230" width="20" height="20" as="geometry" />
        </mxCell>
        <mxCell id="A5t22kL17MTPCg51M2_L-6" value="" style="shape=waypoint;sketch=0;size=6;pointerEvents=1;points=[];fillColor=none;resizable=0;rotatable=0;perimeter=centerPerimeter;snapToPoint=1;strokeColor=#6c8ebf;strokeWidth=1;fontFamily=Courier New;fontSize=14;" parent="1" vertex="1">
          <mxGeometry x="190" y="180" width="20" height="20" as="geometry" />
        </mxCell>
        <mxCell id="A5t22kL17MTPCg51M2_L-10" value="" style="endArrow=none;html=1;rounded=1;strokeColor=#6c8ebf;fontFamily=Courier New;fillColor=#dae8fc;entryX=0.533;entryY=0.717;entryDx=0;entryDy=0;entryPerimeter=0;" parent="1" source="A5t22kL17MTPCg51M2_L-6" target="NtLDhn3vMmtNx0MF81nD-2" edge="1">
          <mxGeometry width="50" height="50" relative="1" as="geometry">
            <mxPoint x="210" y="170" as="sourcePoint" />
            <mxPoint x="260" y="120" as="targetPoint" />
          </mxGeometry>
        </mxCell>
        <mxCell id="A5t22kL17MTPCg51M2_L-13" value="" style="endArrow=none;html=1;rounded=1;strokeColor=#6c8ebf;fontFamily=Courier New;fillColor=#dae8fc;exitX=0.633;exitY=0.333;exitDx=0;exitDy=0;exitPerimeter=0;" parent="1" source="A5t22kL17MTPCg51M2_L-4" target="A5t22kL17MTPCg51M2_L-11" edge="1">
          <mxGeometry width="50" height="50" relative="1" as="geometry">
            <mxPoint x="160" y="240" as="sourcePoint" />
            <mxPoint x="300" y="60" as="targetPoint" />
          </mxGeometry>
        </mxCell>
        <mxCell id="A5t22kL17MTPCg51M2_L-11" value="" style="shape=waypoint;sketch=0;size=6;pointerEvents=1;points=[];fillColor=none;resizable=0;rotatable=0;perimeter=centerPerimeter;snapToPoint=1;strokeColor=#6c8ebf;strokeWidth=1;fontFamily=Courier New;fontSize=14;" parent="1" vertex="1">
          <mxGeometry x="270" y="70" width="20" height="20" as="geometry" />
        </mxCell>
        <mxCell id="A5t22kL17MTPCg51M2_L-15" value="" style="endArrow=none;html=1;rounded=1;strokeColor=#6c8ebf;fontFamily=Courier New;fillColor=#dae8fc;entryX=0.35;entryY=0.633;entryDx=0;entryDy=0;entryPerimeter=0;" parent="1" source="NtLDhn3vMmtNx0MF81nD-2" target="A5t22kL17MTPCg51M2_L-11" edge="1">
          <mxGeometry width="50" height="50" relative="1" as="geometry">
            <mxPoint x="210" y="170" as="sourcePoint" />
            <mxPoint x="260" y="120" as="targetPoint" />
          </mxGeometry>
        </mxCell>
        <mxCell id="cOnJYvgrsElOKiv_HJpb-2" value="" style="shape=waypoint;sketch=0;size=6;pointerEvents=1;points=[];fillColor=none;resizable=0;rotatable=0;perimeter=centerPerimeter;snapToPoint=1;strokeColor=#6c8ebf;strokeWidth=1;fontFamily=Courier New;fontSize=14;" vertex="1" parent="1">
          <mxGeometry x="190" y="470" width="20" height="20" as="geometry" />
        </mxCell>
        <mxCell id="cOnJYvgrsElOKiv_HJpb-3" value="" style="shape=waypoint;sketch=0;size=6;pointerEvents=1;points=[];fillColor=none;resizable=0;rotatable=0;perimeter=centerPerimeter;snapToPoint=1;strokeColor=#6c8ebf;strokeWidth=1;fontFamily=Courier New;fontSize=14;" vertex="1" parent="1">
          <mxGeometry x="510" y="470" width="20" height="20" as="geometry" />
        </mxCell>
        <mxCell id="cOnJYvgrsElOKiv_HJpb-6" style="edgeStyle=orthogonalEdgeStyle;rounded=1;orthogonalLoop=1;jettySize=auto;html=1;entryX=0.1;entryY=0.45;entryDx=0;entryDy=0;entryPerimeter=0;strokeColor=#b85450;fontFamily=Courier New;fillColor=#f8cecc;strokeWidth=5;" edge="1" parent="1" source="cOnJYvgrsElOKiv_HJpb-2" target="cOnJYvgrsElOKiv_HJpb-3">
          <mxGeometry relative="1" as="geometry">
            <Array as="points">
              <mxPoint x="200" y="420" />
              <mxPoint x="520" y="420" />
            </Array>
          </mxGeometry>
        </mxCell>
        <mxCell id="cOnJYvgrsElOKiv_HJpb-7" style="edgeStyle=orthogonalEdgeStyle;rounded=1;orthogonalLoop=1;jettySize=auto;html=1;entryX=0.6;entryY=0.9;entryDx=0;entryDy=0;entryPerimeter=0;strokeColor=#6c8ebf;fontFamily=Courier New;fillColor=#dae8fc;strokeWidth=5;" edge="1" parent="1" source="cOnJYvgrsElOKiv_HJpb-3" target="cOnJYvgrsElOKiv_HJpb-2">
          <mxGeometry relative="1" as="geometry">
            <Array as="points">
              <mxPoint x="520" y="540" />
              <mxPoint x="200" y="540" />
            </Array>
          </mxGeometry>
        </mxCell>
      </root>
    </mxGraphModel>
  </diagram>
  <diagram id="hTQKlbR3PxImF7koeXhz" name="transformation_3d">
    <mxGraphModel dx="1434" dy="843" grid="1" gridSize="10" guides="1" tooltips="1" connect="1" arrows="1" fold="1" page="1" pageScale="1" pageWidth="850" pageHeight="1100" math="0" shadow="0">
      <root>
        <mxCell id="0" />
        <mxCell id="1" parent="0" />
        <mxCell id="k-qvdVhL67hXALljvBtf-2" value="" style="whiteSpace=wrap;html=1;aspect=fixed;strokeColor=#6c8ebf;strokeWidth=1;fontFamily=Courier New;fontSize=14;fillColor=#dae8fc;" parent="1" vertex="1">
          <mxGeometry x="310" y="310" width="100" height="100" as="geometry" />
        </mxCell>
        <mxCell id="k-qvdVhL67hXALljvBtf-1" value="" style="shape=waypoint;sketch=0;size=6;pointerEvents=1;points=[];fillColor=none;resizable=0;rotatable=0;perimeter=centerPerimeter;snapToPoint=1;strokeColor=#6c8ebf;strokeWidth=1;fontFamily=Courier New;fontSize=14;" parent="1" vertex="1">
          <mxGeometry x="350" y="350" width="20" height="20" as="geometry" />
        </mxCell>
        <mxCell id="k-qvdVhL67hXALljvBtf-3" value="" style="whiteSpace=wrap;html=1;aspect=fixed;strokeColor=#6c8ebf;strokeWidth=1;fontFamily=Courier New;fontSize=14;fillColor=#dae8fc;" parent="1" vertex="1">
          <mxGeometry x="320" y="230" width="80" height="80" as="geometry" />
        </mxCell>
        <mxCell id="k-qvdVhL67hXALljvBtf-4" value="" style="whiteSpace=wrap;html=1;aspect=fixed;strokeColor=#6c8ebf;strokeWidth=1;fontFamily=Courier New;fontSize=14;fillColor=#dae8fc;" parent="1" vertex="1">
          <mxGeometry x="328" y="166" width="64" height="64" as="geometry" />
        </mxCell>
        <mxCell id="k-qvdVhL67hXALljvBtf-6" style="edgeStyle=orthogonalEdgeStyle;rounded=1;orthogonalLoop=1;jettySize=auto;html=1;strokeColor=#6c8ebf;fontFamily=Courier New;fillColor=#dae8fc;" parent="1" source="k-qvdVhL67hXALljvBtf-5" edge="1">
          <mxGeometry relative="1" as="geometry">
            <mxPoint x="480" y="110.00000000000006" as="targetPoint" />
          </mxGeometry>
        </mxCell>
        <mxCell id="k-qvdVhL67hXALljvBtf-5" value="" style="shape=waypoint;sketch=0;size=6;pointerEvents=1;points=[];fillColor=none;resizable=0;rotatable=0;perimeter=centerPerimeter;snapToPoint=1;strokeColor=#6c8ebf;strokeWidth=1;fontFamily=Courier New;fontSize=14;" parent="1" vertex="1">
          <mxGeometry x="470" y="350" width="20" height="20" as="geometry" />
        </mxCell>
        <mxCell id="k-qvdVhL67hXALljvBtf-7" value="0.1" style="text;html=1;align=center;verticalAlign=middle;resizable=0;points=[];autosize=1;strokeColor=none;fillColor=none;fontFamily=Courier New;fontSize=14;" parent="1" vertex="1">
          <mxGeometry x="495" y="320" width="50" height="30" as="geometry" />
        </mxCell>
        <mxCell id="k-qvdVhL67hXALljvBtf-8" value="" style="shape=waypoint;sketch=0;size=6;pointerEvents=1;points=[];fillColor=none;resizable=0;rotatable=0;perimeter=centerPerimeter;snapToPoint=1;strokeColor=#6c8ebf;strokeWidth=1;fontFamily=Courier New;fontSize=14;" parent="1" vertex="1">
          <mxGeometry x="480" y="300" width="20" height="20" as="geometry" />
        </mxCell>
        <mxCell id="k-qvdVhL67hXALljvBtf-9" value="" style="shape=waypoint;sketch=0;size=6;pointerEvents=1;points=[];fillColor=none;resizable=0;rotatable=0;perimeter=centerPerimeter;snapToPoint=1;strokeColor=#6c8ebf;strokeWidth=1;fontFamily=Courier New;fontSize=14;" parent="1" vertex="1">
          <mxGeometry x="490" y="220" width="20" height="20" as="geometry" />
        </mxCell>
        <mxCell id="k-qvdVhL67hXALljvBtf-17" value="q = 0.8" style="text;html=1;align=center;verticalAlign=middle;resizable=0;points=[];autosize=1;strokeColor=none;fillColor=none;fontFamily=Courier New;fontSize=14;" parent="1" vertex="1">
          <mxGeometry x="560" y="410" width="80" height="30" as="geometry" />
        </mxCell>
        <mxCell id="k-qvdVhL67hXALljvBtf-19" value="" style="shape=waypoint;sketch=0;size=6;pointerEvents=1;points=[];fillColor=none;resizable=0;rotatable=0;perimeter=centerPerimeter;snapToPoint=1;strokeColor=#6c8ebf;strokeWidth=1;fontFamily=Courier New;fontSize=14;" parent="1" vertex="1">
          <mxGeometry x="350" y="260" width="20" height="20" as="geometry" />
        </mxCell>
        <mxCell id="k-qvdVhL67hXALljvBtf-20" value="0.1*0.8^0+0.1*0.8^1" style="text;html=1;align=center;verticalAlign=middle;resizable=0;points=[];autosize=1;strokeColor=none;fillColor=none;fontFamily=Courier New;fontSize=14;" parent="1" vertex="1">
          <mxGeometry x="510" y="230" width="180" height="30" as="geometry" />
        </mxCell>
      </root>
    </mxGraphModel>
  </diagram>
  <diagram id="OSSXn5YVBRWJywqViT6S" name="4-star">
    <mxGraphModel dx="989" dy="537" grid="1" gridSize="10" guides="1" tooltips="1" connect="1" arrows="1" fold="1" page="1" pageScale="1" pageWidth="850" pageHeight="1100" math="0" shadow="0">
      <root>
        <mxCell id="0" />
        <mxCell id="1" parent="0" />
        <mxCell id="gqcgMFQrohhbZfBbE3aS-1" value="" style="rounded=0;whiteSpace=wrap;html=1;strokeColor=#6c8ebf;strokeWidth=1;fontFamily=Courier New;fontSize=14;fillColor=#dae8fc;" vertex="1" parent="1">
          <mxGeometry x="80" y="320" width="280" height="80" as="geometry" />
        </mxCell>
        <mxCell id="gqcgMFQrohhbZfBbE3aS-2" value="" style="rounded=0;whiteSpace=wrap;html=1;strokeColor=#6c8ebf;strokeWidth=1;fontFamily=Courier New;fontSize=14;fillColor=#dae8fc;direction=south;" vertex="1" parent="1">
          <mxGeometry x="360" y="400" width="80" height="280" as="geometry" />
        </mxCell>
        <mxCell id="gqcgMFQrohhbZfBbE3aS-5" value="" style="rounded=0;whiteSpace=wrap;html=1;strokeColor=#6c8ebf;strokeWidth=1;fontFamily=Courier New;fontSize=14;fillColor=#dae8fc;" vertex="1" parent="1">
          <mxGeometry x="440" y="320" width="280" height="80" as="geometry" />
        </mxCell>
        <mxCell id="gqcgMFQrohhbZfBbE3aS-7" value="" style="rounded=0;whiteSpace=wrap;html=1;strokeColor=#6c8ebf;strokeWidth=1;fontFamily=Courier New;fontSize=14;fillColor=#dae8fc;direction=south;" vertex="1" parent="1">
          <mxGeometry x="360" y="40" width="80" height="280" as="geometry" />
        </mxCell>
        <mxCell id="gqcgMFQrohhbZfBbE3aS-9" value="" style="shape=waypoint;sketch=0;size=6;pointerEvents=1;points=[];fillColor=none;resizable=0;rotatable=0;perimeter=centerPerimeter;snapToPoint=1;strokeColor=#6c8ebf;strokeWidth=1;fontFamily=Courier New;fontSize=14;" vertex="1" parent="1">
          <mxGeometry x="310" y="270" width="20" height="20" as="geometry" />
        </mxCell>
        <mxCell id="gqcgMFQrohhbZfBbE3aS-10" value="" style="shape=waypoint;sketch=0;size=6;pointerEvents=1;points=[];fillColor=none;resizable=0;rotatable=0;perimeter=centerPerimeter;snapToPoint=1;strokeColor=#6c8ebf;strokeWidth=1;fontFamily=Courier New;fontSize=14;" vertex="1" parent="1">
          <mxGeometry x="470" y="270" width="20" height="20" as="geometry" />
        </mxCell>
        <mxCell id="gqcgMFQrohhbZfBbE3aS-11" value="" style="shape=waypoint;sketch=0;size=6;pointerEvents=1;points=[];fillColor=none;resizable=0;rotatable=0;perimeter=centerPerimeter;snapToPoint=1;strokeColor=#6c8ebf;strokeWidth=1;fontFamily=Courier New;fontSize=14;" vertex="1" parent="1">
          <mxGeometry x="310" y="430" width="20" height="20" as="geometry" />
        </mxCell>
        <mxCell id="gqcgMFQrohhbZfBbE3aS-12" value="" style="shape=waypoint;sketch=0;size=6;pointerEvents=1;points=[];fillColor=none;resizable=0;rotatable=0;perimeter=centerPerimeter;snapToPoint=1;strokeColor=#6c8ebf;strokeWidth=1;fontFamily=Courier New;fontSize=14;" vertex="1" parent="1">
          <mxGeometry x="470" y="430" width="20" height="20" as="geometry" />
        </mxCell>
        <mxCell id="gqcgMFQrohhbZfBbE3aS-13" value="" style="rounded=0;whiteSpace=wrap;html=1;strokeColor=#b85450;strokeWidth=1;fontFamily=Courier New;fontSize=14;fillColor=#f8cecc;" vertex="1" parent="1">
          <mxGeometry x="80" y="280" width="240" height="40" as="geometry" />
        </mxCell>
        <mxCell id="gqcgMFQrohhbZfBbE3aS-14" value="" style="rounded=0;whiteSpace=wrap;html=1;strokeColor=#b85450;strokeWidth=1;fontFamily=Courier New;fontSize=14;fillColor=#f8cecc;" vertex="1" parent="1">
          <mxGeometry x="480" y="400" width="240" height="40" as="geometry" />
        </mxCell>
        <mxCell id="gqcgMFQrohhbZfBbE3aS-15" value="" style="rounded=0;whiteSpace=wrap;html=1;strokeColor=#b85450;strokeWidth=1;fontFamily=Courier New;fontSize=14;fillColor=#f8cecc;direction=south;" vertex="1" parent="1">
          <mxGeometry x="440" y="40" width="40" height="240" as="geometry" />
        </mxCell>
        <mxCell id="gqcgMFQrohhbZfBbE3aS-16" value="" style="rounded=0;whiteSpace=wrap;html=1;strokeColor=#b85450;strokeWidth=1;fontFamily=Courier New;fontSize=14;fillColor=#f8cecc;" vertex="1" parent="1">
          <mxGeometry x="480" y="280" width="240" height="40" as="geometry" />
        </mxCell>
        <mxCell id="gqcgMFQrohhbZfBbE3aS-17" value="" style="rounded=0;whiteSpace=wrap;html=1;strokeColor=#b85450;strokeWidth=1;fontFamily=Courier New;fontSize=14;fillColor=#f8cecc;direction=south;" vertex="1" parent="1">
          <mxGeometry x="320" y="40" width="40" height="240" as="geometry" />
        </mxCell>
        <mxCell id="gqcgMFQrohhbZfBbE3aS-18" value="" style="rounded=0;whiteSpace=wrap;html=1;strokeColor=#b85450;strokeWidth=1;fontFamily=Courier New;fontSize=14;fillColor=#f8cecc;direction=south;" vertex="1" parent="1">
          <mxGeometry x="440" y="440" width="40" height="240" as="geometry" />
        </mxCell>
        <mxCell id="gqcgMFQrohhbZfBbE3aS-19" value="" style="rounded=0;whiteSpace=wrap;html=1;strokeColor=#b85450;strokeWidth=1;fontFamily=Courier New;fontSize=14;fillColor=#f8cecc;direction=south;" vertex="1" parent="1">
          <mxGeometry x="320" y="440" width="40" height="240" as="geometry" />
        </mxCell>
        <mxCell id="gqcgMFQrohhbZfBbE3aS-20" value="" style="rounded=0;whiteSpace=wrap;html=1;strokeColor=#b85450;strokeWidth=1;fontFamily=Courier New;fontSize=14;fillColor=#f8cecc;" vertex="1" parent="1">
          <mxGeometry x="80" y="400" width="240" height="40" as="geometry" />
        </mxCell>
      </root>
    </mxGraphModel>
  </diagram>
  <diagram id="aQh-TxWqxp4tg7OE4VzU" name="8-star">
    <mxGraphModel dx="667" dy="362" grid="1" gridSize="10" guides="1" tooltips="1" connect="1" arrows="1" fold="1" page="1" pageScale="1" pageWidth="850" pageHeight="1100" math="0" shadow="0">
      <root>
        <mxCell id="0" />
        <mxCell id="1" parent="0" />
        <mxCell id="__9lYY2NOMY1DWAuNzlU-73" value="" style="ellipse;whiteSpace=wrap;html=1;aspect=fixed;strokeColor=#6c8ebf;strokeWidth=1;fontFamily=Courier New;fontSize=14;fillColor=#dae8fc;" vertex="1" parent="1">
          <mxGeometry x="120" y="680" width="160" height="160" as="geometry" />
        </mxCell>
        <mxCell id="__9lYY2NOMY1DWAuNzlU-9" value="" style="rounded=0;whiteSpace=wrap;html=1;strokeColor=#b85450;strokeWidth=1;fontFamily=Courier New;fontSize=14;fillColor=#f8cecc;" vertex="1" parent="1">
          <mxGeometry x="810" y="280" width="240" height="40" as="geometry" />
        </mxCell>
        <mxCell id="__9lYY2NOMY1DWAuNzlU-10" value="" style="rounded=0;whiteSpace=wrap;html=1;strokeColor=#b85450;strokeWidth=1;fontFamily=Courier New;fontSize=14;fillColor=#f8cecc;" vertex="1" parent="1">
          <mxGeometry x="1210" y="400" width="240" height="40" as="geometry" />
        </mxCell>
        <mxCell id="__9lYY2NOMY1DWAuNzlU-11" value="" style="rounded=0;whiteSpace=wrap;html=1;strokeColor=#b85450;strokeWidth=1;fontFamily=Courier New;fontSize=14;fillColor=#f8cecc;direction=south;" vertex="1" parent="1">
          <mxGeometry x="1170" y="40" width="40" height="240" as="geometry" />
        </mxCell>
        <mxCell id="__9lYY2NOMY1DWAuNzlU-12" value="" style="rounded=0;whiteSpace=wrap;html=1;strokeColor=#b85450;strokeWidth=1;fontFamily=Courier New;fontSize=14;fillColor=#f8cecc;" vertex="1" parent="1">
          <mxGeometry x="1210" y="280" width="240" height="40" as="geometry" />
        </mxCell>
        <mxCell id="__9lYY2NOMY1DWAuNzlU-13" value="" style="rounded=0;whiteSpace=wrap;html=1;strokeColor=#b85450;strokeWidth=1;fontFamily=Courier New;fontSize=14;fillColor=#f8cecc;direction=south;" vertex="1" parent="1">
          <mxGeometry x="1050" y="40" width="40" height="240" as="geometry" />
        </mxCell>
        <mxCell id="__9lYY2NOMY1DWAuNzlU-14" value="" style="rounded=0;whiteSpace=wrap;html=1;strokeColor=#b85450;strokeWidth=1;fontFamily=Courier New;fontSize=14;fillColor=#f8cecc;direction=south;" vertex="1" parent="1">
          <mxGeometry x="1170" y="440" width="40" height="240" as="geometry" />
        </mxCell>
        <mxCell id="__9lYY2NOMY1DWAuNzlU-15" value="" style="rounded=0;whiteSpace=wrap;html=1;strokeColor=#b85450;strokeWidth=1;fontFamily=Courier New;fontSize=14;fillColor=#f8cecc;direction=south;" vertex="1" parent="1">
          <mxGeometry x="1050" y="440" width="40" height="240" as="geometry" />
        </mxCell>
        <mxCell id="__9lYY2NOMY1DWAuNzlU-16" value="" style="rounded=0;whiteSpace=wrap;html=1;strokeColor=#b85450;strokeWidth=1;fontFamily=Courier New;fontSize=14;fillColor=#f8cecc;" vertex="1" parent="1">
          <mxGeometry x="810" y="400" width="240" height="40" as="geometry" />
        </mxCell>
        <mxCell id="__9lYY2NOMY1DWAuNzlU-36" value="" style="ellipse;whiteSpace=wrap;html=1;aspect=fixed;strokeColor=#6c8ebf;strokeWidth=1;fontFamily=Courier New;fontSize=14;fillColor=#dae8fc;" vertex="1" parent="1">
          <mxGeometry x="360" y="360" width="80" height="80" as="geometry" />
        </mxCell>
        <mxCell id="__9lYY2NOMY1DWAuNzlU-37" value="" style="endArrow=none;html=1;rounded=1;strokeColor=#6c8ebf;fontFamily=Courier New;fillColor=#dae8fc;" edge="1" parent="1">
          <mxGeometry width="50" height="50" relative="1" as="geometry">
            <mxPoint x="240" y="400" as="sourcePoint" />
            <mxPoint x="560" y="400" as="targetPoint" />
          </mxGeometry>
        </mxCell>
        <mxCell id="__9lYY2NOMY1DWAuNzlU-39" value="" style="endArrow=none;html=1;rounded=1;strokeColor=#6c8ebf;fontFamily=Courier New;fillColor=#dae8fc;" edge="1" parent="1">
          <mxGeometry width="50" height="50" relative="1" as="geometry">
            <mxPoint x="400" y="560" as="sourcePoint" />
            <mxPoint x="400" y="240" as="targetPoint" />
          </mxGeometry>
        </mxCell>
        <mxCell id="__9lYY2NOMY1DWAuNzlU-40" value="" style="rounded=0;whiteSpace=wrap;html=1;strokeColor=#b85450;strokeWidth=1;fontFamily=Courier New;fontSize=14;fillColor=#f8cecc;" vertex="1" parent="1">
          <mxGeometry x="240" y="390" width="120" height="20" as="geometry" />
        </mxCell>
        <mxCell id="__9lYY2NOMY1DWAuNzlU-41" value="" style="rounded=0;whiteSpace=wrap;html=1;strokeColor=#b85450;strokeWidth=1;fontFamily=Courier New;fontSize=14;fillColor=#f8cecc;" vertex="1" parent="1">
          <mxGeometry x="440" y="390" width="120" height="20" as="geometry" />
        </mxCell>
        <mxCell id="__9lYY2NOMY1DWAuNzlU-43" value="" style="rounded=0;whiteSpace=wrap;html=1;strokeColor=#b85450;strokeWidth=1;fontFamily=Courier New;fontSize=14;fillColor=#f8cecc;direction=south;" vertex="1" parent="1">
          <mxGeometry x="390" y="440" width="20" height="120" as="geometry" />
        </mxCell>
        <mxCell id="__9lYY2NOMY1DWAuNzlU-44" value="" style="rounded=0;whiteSpace=wrap;html=1;strokeColor=#b85450;strokeWidth=1;fontFamily=Courier New;fontSize=14;fillColor=#f8cecc;direction=south;" vertex="1" parent="1">
          <mxGeometry x="390" y="240" width="20" height="120" as="geometry" />
        </mxCell>
        <mxCell id="__9lYY2NOMY1DWAuNzlU-45" value="" style="rounded=0;whiteSpace=wrap;html=1;strokeColor=#b85450;strokeWidth=1;fontFamily=Courier New;fontSize=14;fillColor=#f8cecc;direction=south;rotation=45;" vertex="1" parent="1">
          <mxGeometry x="320" y="410" width="20" height="120" as="geometry" />
        </mxCell>
        <mxCell id="__9lYY2NOMY1DWAuNzlU-46" value="" style="rounded=0;whiteSpace=wrap;html=1;strokeColor=#b85450;strokeWidth=1;fontFamily=Courier New;fontSize=14;fillColor=#f8cecc;direction=south;rotation=45;" vertex="1" parent="1">
          <mxGeometry x="460" y="270" width="20" height="120" as="geometry" />
        </mxCell>
        <mxCell id="__9lYY2NOMY1DWAuNzlU-47" value="" style="rounded=0;whiteSpace=wrap;html=1;strokeColor=#b85450;strokeWidth=1;fontFamily=Courier New;fontSize=14;fillColor=#f8cecc;direction=south;rotation=315;" vertex="1" parent="1">
          <mxGeometry x="460" y="410" width="20" height="120" as="geometry" />
        </mxCell>
        <mxCell id="__9lYY2NOMY1DWAuNzlU-48" value="" style="rounded=0;whiteSpace=wrap;html=1;strokeColor=#b85450;strokeWidth=1;fontFamily=Courier New;fontSize=14;fillColor=#f8cecc;direction=south;rotation=315;" vertex="1" parent="1">
          <mxGeometry x="320" y="270" width="20" height="120" as="geometry" />
        </mxCell>
        <mxCell id="__9lYY2NOMY1DWAuNzlU-51" value="" style="endArrow=none;html=1;rounded=1;strokeColor=#6c8ebf;fontFamily=Courier New;fillColor=#dae8fc;" edge="1" parent="1">
          <mxGeometry width="50" height="50" relative="1" as="geometry">
            <mxPoint x="240" y="560" as="sourcePoint" />
            <mxPoint x="560" y="240" as="targetPoint" />
          </mxGeometry>
        </mxCell>
        <mxCell id="__9lYY2NOMY1DWAuNzlU-52" value="" style="endArrow=none;html=1;rounded=1;strokeColor=#6c8ebf;fontFamily=Courier New;fillColor=#dae8fc;" edge="1" parent="1">
          <mxGeometry width="50" height="50" relative="1" as="geometry">
            <mxPoint x="560" y="560" as="sourcePoint" />
            <mxPoint x="240" y="240" as="targetPoint" />
          </mxGeometry>
        </mxCell>
        <mxCell id="__9lYY2NOMY1DWAuNzlU-55" value="" style="rounded=0;whiteSpace=wrap;html=1;strokeColor=#6c8ebf;strokeWidth=1;fontFamily=Courier New;fontSize=14;fillColor=#dae8fc;rotation=-45;" vertex="1" parent="1">
          <mxGeometry x="90" y="495" width="110" height="10" as="geometry" />
        </mxCell>
        <mxCell id="__9lYY2NOMY1DWAuNzlU-56" value="" style="rounded=0;whiteSpace=wrap;html=1;strokeColor=#6c8ebf;strokeWidth=1;fontFamily=Courier New;fontSize=14;fillColor=#dae8fc;" vertex="1" parent="1">
          <mxGeometry x="240" y="380" width="110" height="10" as="geometry" />
        </mxCell>
        <mxCell id="__9lYY2NOMY1DWAuNzlU-59" value="" style="endArrow=none;html=1;rounded=1;strokeColor=#6c8ebf;fontFamily=Courier New;fillColor=#dae8fc;" edge="1" parent="1">
          <mxGeometry width="50" height="50" relative="1" as="geometry">
            <mxPoint x="80" y="359.52" as="sourcePoint" />
            <mxPoint x="160" y="359.52" as="targetPoint" />
          </mxGeometry>
        </mxCell>
        <mxCell id="__9lYY2NOMY1DWAuNzlU-60" value="" style="endArrow=none;html=1;rounded=1;strokeColor=#6c8ebf;fontFamily=Courier New;fillColor=#dae8fc;" edge="1" parent="1">
          <mxGeometry width="50" height="50" relative="1" as="geometry">
            <mxPoint x="80" y="440" as="sourcePoint" />
            <mxPoint x="160" y="360" as="targetPoint" />
          </mxGeometry>
        </mxCell>
        <mxCell id="__9lYY2NOMY1DWAuNzlU-61" value="" style="endArrow=none;html=1;rounded=1;strokeColor=#6c8ebf;fontFamily=Courier New;fillColor=#dae8fc;" edge="1" parent="1">
          <mxGeometry width="50" height="50" relative="1" as="geometry">
            <mxPoint x="80" y="370" as="sourcePoint" />
            <mxPoint x="140" y="370" as="targetPoint" />
          </mxGeometry>
        </mxCell>
        <mxCell id="__9lYY2NOMY1DWAuNzlU-66" value="" style="shape=waypoint;sketch=0;size=6;pointerEvents=1;points=[];fillColor=none;resizable=0;rotatable=0;perimeter=centerPerimeter;snapToPoint=1;strokeColor=#6c8ebf;strokeWidth=1;fontFamily=Courier New;fontSize=14;" vertex="1" parent="1">
          <mxGeometry x="190" y="750" width="20" height="20" as="geometry" />
        </mxCell>
        <mxCell id="__9lYY2NOMY1DWAuNzlU-74" value="" style="ellipse;whiteSpace=wrap;html=1;aspect=fixed;strokeColor=#6c8ebf;strokeWidth=1;fontFamily=Courier New;fontSize=14;fillColor=#dae8fc;" vertex="1" parent="1">
          <mxGeometry x="160" y="720" width="100" height="100" as="geometry" />
        </mxCell>
        <mxCell id="__9lYY2NOMY1DWAuNzlU-67" value="" style="endArrow=none;html=1;rounded=1;strokeColor=#6c8ebf;fontFamily=Courier New;fillColor=#dae8fc;" edge="1" parent="1">
          <mxGeometry width="50" height="50" relative="1" as="geometry">
            <mxPoint x="80" y="760" as="sourcePoint" />
            <mxPoint x="320" y="760" as="targetPoint" />
          </mxGeometry>
        </mxCell>
        <mxCell id="__9lYY2NOMY1DWAuNzlU-72" value="" style="endArrow=none;html=1;rounded=1;strokeColor=#6c8ebf;fontFamily=Courier New;fillColor=#dae8fc;" edge="1" parent="1">
          <mxGeometry width="50" height="50" relative="1" as="geometry">
            <mxPoint x="200" y="920" as="sourcePoint" />
            <mxPoint x="200" y="600" as="targetPoint" />
          </mxGeometry>
        </mxCell>
      </root>
    </mxGraphModel>
  </diagram>
  <diagram id="hHJTaEJnSaxMdJAa5inF" name="frame">
    <mxGraphModel dx="683" dy="370" grid="1" gridSize="10" guides="1" tooltips="1" connect="1" arrows="1" fold="1" page="1" pageScale="1" pageWidth="850" pageHeight="1100" math="0" shadow="0">
      <root>
        <mxCell id="0" />
        <mxCell id="1" parent="0" />
        <mxCell id="JJUMkZbkKZCrO0z2hmZx-3" value="" style="shape=parallelogram;perimeter=parallelogramPerimeter;whiteSpace=wrap;html=1;fixedSize=1;strokeColor=#6c8ebf;strokeWidth=1;fontFamily=Courier New;fontSize=14;fillColor=#dae8fc;" vertex="1" parent="1">
          <mxGeometry x="380" y="410" width="120" height="60" as="geometry" />
        </mxCell>
        <mxCell id="JJUMkZbkKZCrO0z2hmZx-4" value="" style="shape=parallelogram;perimeter=parallelogramPerimeter;whiteSpace=wrap;html=1;fixedSize=1;strokeColor=#6c8ebf;strokeWidth=1;fontFamily=Courier New;fontSize=14;fillColor=#dae8fc;" vertex="1" parent="1">
          <mxGeometry x="400" y="440" width="120" height="60" as="geometry" />
        </mxCell>
        <mxCell id="JJUMkZbkKZCrO0z2hmZx-5" value="" style="endArrow=none;html=1;rounded=1;strokeColor=#6c8ebf;fontFamily=Courier New;fillColor=#dae8fc;exitX=0.164;exitY=0.011;exitDx=0;exitDy=0;exitPerimeter=0;" edge="1" parent="1" source="JJUMkZbkKZCrO0z2hmZx-3">
          <mxGeometry width="50" height="50" relative="1" as="geometry">
            <mxPoint x="370" y="490" as="sourcePoint" />
            <mxPoint x="420" y="440" as="targetPoint" />
          </mxGeometry>
        </mxCell>
        <mxCell id="JJUMkZbkKZCrO0z2hmZx-6" value="" style="endArrow=none;html=1;rounded=1;strokeColor=#6c8ebf;fontFamily=Courier New;fillColor=#dae8fc;exitX=1;exitY=0;exitDx=0;exitDy=0;" edge="1" parent="1" source="JJUMkZbkKZCrO0z2hmZx-3">
          <mxGeometry width="50" height="50" relative="1" as="geometry">
            <mxPoint x="470" y="490" as="sourcePoint" />
            <mxPoint x="520" y="440" as="targetPoint" />
          </mxGeometry>
        </mxCell>
        <mxCell id="JJUMkZbkKZCrO0z2hmZx-7" value="" style="endArrow=none;html=1;rounded=1;strokeColor=#6c8ebf;fontFamily=Courier New;fillColor=#dae8fc;entryX=0;entryY=1;entryDx=0;entryDy=0;exitX=0;exitY=1;exitDx=0;exitDy=0;" edge="1" parent="1" source="JJUMkZbkKZCrO0z2hmZx-3" target="JJUMkZbkKZCrO0z2hmZx-4">
          <mxGeometry width="50" height="50" relative="1" as="geometry">
            <mxPoint x="370" y="490" as="sourcePoint" />
            <mxPoint x="420" y="440" as="targetPoint" />
          </mxGeometry>
        </mxCell>
        <mxCell id="JJUMkZbkKZCrO0z2hmZx-8" value="" style="shape=parallelogram;perimeter=parallelogramPerimeter;whiteSpace=wrap;html=1;fixedSize=1;strokeColor=#6c8ebf;strokeWidth=1;fontFamily=Courier New;fontSize=14;fillColor=#dae8fc;" vertex="1" parent="1">
          <mxGeometry x="420" y="470" width="120" height="60" as="geometry" />
        </mxCell>
        <mxCell id="JJUMkZbkKZCrO0z2hmZx-9" value="" style="shape=parallelogram;perimeter=parallelogramPerimeter;whiteSpace=wrap;html=1;fixedSize=1;strokeColor=#6c8ebf;strokeWidth=1;fontFamily=Courier New;fontSize=14;fillColor=#dae8fc;" vertex="1" parent="1">
          <mxGeometry x="440" y="500" width="120" height="60" as="geometry" />
        </mxCell>
        <mxCell id="JJUMkZbkKZCrO0z2hmZx-10" value="" style="endArrow=none;html=1;rounded=1;strokeColor=#6c8ebf;fontFamily=Courier New;fillColor=#dae8fc;exitX=0.164;exitY=0.011;exitDx=0;exitDy=0;exitPerimeter=0;" edge="1" parent="1" source="JJUMkZbkKZCrO0z2hmZx-8">
          <mxGeometry width="50" height="50" relative="1" as="geometry">
            <mxPoint x="410" y="550" as="sourcePoint" />
            <mxPoint x="460" y="500" as="targetPoint" />
          </mxGeometry>
        </mxCell>
        <mxCell id="JJUMkZbkKZCrO0z2hmZx-11" value="" style="endArrow=none;html=1;rounded=1;strokeColor=#6c8ebf;fontFamily=Courier New;fillColor=#dae8fc;exitX=1;exitY=0;exitDx=0;exitDy=0;" edge="1" parent="1" source="JJUMkZbkKZCrO0z2hmZx-8">
          <mxGeometry width="50" height="50" relative="1" as="geometry">
            <mxPoint x="510" y="550" as="sourcePoint" />
            <mxPoint x="560" y="500" as="targetPoint" />
          </mxGeometry>
        </mxCell>
        <mxCell id="JJUMkZbkKZCrO0z2hmZx-12" value="" style="endArrow=none;html=1;rounded=1;strokeColor=#6c8ebf;fontFamily=Courier New;fillColor=#dae8fc;entryX=0;entryY=1;entryDx=0;entryDy=0;exitX=0;exitY=1;exitDx=0;exitDy=0;" edge="1" parent="1" source="JJUMkZbkKZCrO0z2hmZx-8" target="JJUMkZbkKZCrO0z2hmZx-9">
          <mxGeometry width="50" height="50" relative="1" as="geometry">
            <mxPoint x="410" y="550" as="sourcePoint" />
            <mxPoint x="460" y="500" as="targetPoint" />
          </mxGeometry>
        </mxCell>
        <mxCell id="JJUMkZbkKZCrO0z2hmZx-13" value="" style="endArrow=none;html=1;rounded=1;strokeColor=#6c8ebf;fontFamily=Courier New;fillColor=#dae8fc;entryX=0;entryY=1;entryDx=0;entryDy=0;" edge="1" parent="1" target="JJUMkZbkKZCrO0z2hmZx-4">
          <mxGeometry width="50" height="50" relative="1" as="geometry">
            <mxPoint x="420" y="530" as="sourcePoint" />
            <mxPoint x="410" y="470" as="targetPoint" />
          </mxGeometry>
        </mxCell>
        <mxCell id="JJUMkZbkKZCrO0z2hmZx-14" value="" style="endArrow=none;html=1;rounded=1;strokeColor=#6c8ebf;fontFamily=Courier New;fillColor=#dae8fc;exitX=0;exitY=0.5;exitDx=0;exitDy=0;" edge="1" parent="1" source="JJUMkZbkKZCrO0z2hmZx-8">
          <mxGeometry width="50" height="50" relative="1" as="geometry">
            <mxPoint x="360" y="520" as="sourcePoint" />
            <mxPoint x="410" y="470" as="targetPoint" />
          </mxGeometry>
        </mxCell>
        <mxCell id="JJUMkZbkKZCrO0z2hmZx-15" value="" style="shape=parallelogram;perimeter=parallelogramPerimeter;whiteSpace=wrap;html=1;fixedSize=1;strokeColor=#6c8ebf;strokeWidth=1;fontFamily=Courier New;fontSize=14;fillColor=#dae8fc;direction=west;flipH=1;" vertex="1" parent="1">
          <mxGeometry x="400" y="410" width="120" height="30" as="geometry" />
        </mxCell>
        <mxCell id="JJUMkZbkKZCrO0z2hmZx-16" value="" style="shape=parallelogram;perimeter=parallelogramPerimeter;whiteSpace=wrap;html=1;fixedSize=1;strokeColor=#6c8ebf;strokeWidth=1;fontFamily=Courier New;fontSize=14;fillColor=#dae8fc;direction=west;flipH=1;" vertex="1" parent="1">
          <mxGeometry x="440" y="470" width="120" height="30" as="geometry" />
        </mxCell>
        <mxCell id="JJUMkZbkKZCrO0z2hmZx-20" value="" style="endArrow=none;html=1;rounded=1;strokeColor=#6c8ebf;fontFamily=Courier New;fillColor=#dae8fc;entryX=0;entryY=1;entryDx=0;entryDy=0;exitX=0;exitY=1;exitDx=0;exitDy=0;dashed=1;" edge="1" parent="1">
          <mxGeometry width="50" height="50" relative="1" as="geometry">
            <mxPoint x="520" y="530" as="sourcePoint" />
            <mxPoint x="540" y="560" as="targetPoint" />
          </mxGeometry>
        </mxCell>
        <mxCell id="JJUMkZbkKZCrO0z2hmZx-22" value="" style="endArrow=none;dashed=1;html=1;rounded=1;strokeColor=#6c8ebf;fontFamily=Courier New;fillColor=#dae8fc;exitX=0.25;exitY=1;exitDx=0;exitDy=0;" edge="1" parent="1" source="JJUMkZbkKZCrO0z2hmZx-8">
          <mxGeometry width="50" height="50" relative="1" as="geometry">
            <mxPoint x="450" y="520" as="sourcePoint" />
            <mxPoint x="520" y="530" as="targetPoint" />
          </mxGeometry>
        </mxCell>
        <mxCell id="JJUMkZbkKZCrO0z2hmZx-23" value="" style="endArrow=none;dashed=1;html=1;rounded=1;strokeColor=#6c8ebf;fontFamily=Courier New;fillColor=#dae8fc;entryX=0.838;entryY=1.015;entryDx=0;entryDy=0;entryPerimeter=0;" edge="1" parent="1" target="JJUMkZbkKZCrO0z2hmZx-16">
          <mxGeometry width="50" height="50" relative="1" as="geometry">
            <mxPoint x="520" y="530" as="sourcePoint" />
            <mxPoint x="500" y="470" as="targetPoint" />
          </mxGeometry>
        </mxCell>
        <mxCell id="JJUMkZbkKZCrO0z2hmZx-27" value="" style="endArrow=classic;startArrow=classic;html=1;rounded=1;strokeColor=#9673a6;fontFamily=Courier New;fillColor=#e1d5e7;" edge="1" parent="1">
          <mxGeometry width="50" height="50" relative="1" as="geometry">
            <mxPoint x="440" y="600" as="sourcePoint" />
            <mxPoint x="540" y="600" as="targetPoint" />
          </mxGeometry>
        </mxCell>
        <mxCell id="JJUMkZbkKZCrO0z2hmZx-28" value="" style="endArrow=classic;startArrow=classic;html=1;rounded=1;strokeColor=#6c8ebf;fontFamily=Courier New;fillColor=#dae8fc;exitX=0;exitY=1;exitDx=0;exitDy=0;" edge="1" parent="1">
          <mxGeometry width="50" height="50" relative="1" as="geometry">
            <mxPoint x="160" y="470" as="sourcePoint" />
            <mxPoint x="220" y="560" as="targetPoint" />
          </mxGeometry>
        </mxCell>
        <mxCell id="JJUMkZbkKZCrO0z2hmZx-29" value="" style="endArrow=classic;startArrow=classic;html=1;rounded=1;strokeColor=#b85450;fontFamily=Courier New;fillColor=#f8cecc;exitX=0;exitY=1;exitDx=0;exitDy=0;" edge="1" parent="1">
          <mxGeometry width="50" height="50" relative="1" as="geometry">
            <mxPoint x="380" y="510" as="sourcePoint" />
            <mxPoint x="400" y="540" as="targetPoint" />
          </mxGeometry>
        </mxCell>
        <mxCell id="JJUMkZbkKZCrO0z2hmZx-31" value="" style="endArrow=classic;startArrow=classic;html=1;rounded=1;strokeColor=#82b366;fontFamily=Courier New;fillColor=#d5e8d4;entryX=0;entryY=0;entryDx=0;entryDy=0;" edge="1" parent="1">
          <mxGeometry width="50" height="50" relative="1" as="geometry">
            <mxPoint x="580" y="560" as="sourcePoint" />
            <mxPoint x="600" y="500" as="targetPoint" />
          </mxGeometry>
        </mxCell>
        <mxCell id="JJUMkZbkKZCrO0z2hmZx-32" value="" style="endArrow=classic;startArrow=classic;html=1;rounded=1;strokeColor=#82b366;fontFamily=Courier New;fillColor=#d5e8d4;entryX=0;entryY=0.5;entryDx=0;entryDy=0;" edge="1" parent="1">
          <mxGeometry width="50" height="50" relative="1" as="geometry">
            <mxPoint x="410" y="515" as="sourcePoint" />
            <mxPoint x="420" y="485" as="targetPoint" />
          </mxGeometry>
        </mxCell>
        <mxCell id="JJUMkZbkKZCrO0z2hmZx-33" value="length" style="text;html=1;align=center;verticalAlign=middle;resizable=0;points=[];autosize=1;strokeColor=none;fillColor=none;fontFamily=Courier New;fontSize=14;fontStyle=1" vertex="1" parent="1">
          <mxGeometry x="445" y="598" width="70" height="30" as="geometry" />
        </mxCell>
        <mxCell id="JJUMkZbkKZCrO0z2hmZx-34" value="height" style="text;html=1;align=center;verticalAlign=middle;resizable=0;points=[];autosize=1;strokeColor=none;fillColor=none;fontFamily=Courier New;fontSize=14;fontStyle=1" vertex="1" parent="1">
          <mxGeometry x="590" y="520" width="70" height="30" as="geometry" />
        </mxCell>
        <mxCell id="JJUMkZbkKZCrO0z2hmZx-35" value="height / 2" style="text;html=1;align=center;verticalAlign=middle;resizable=0;points=[];autosize=1;strokeColor=none;fillColor=none;fontFamily=Courier New;fontSize=14;" vertex="1" parent="1">
          <mxGeometry x="190" y="490" width="110" height="30" as="geometry" />
        </mxCell>
        <mxCell id="JJUMkZbkKZCrO0z2hmZx-37" value="" style="endArrow=classic;startArrow=classic;html=1;rounded=1;strokeColor=#82b366;fontFamily=Courier New;fillColor=#d5e8d4;entryX=0;entryY=0.5;entryDx=0;entryDy=0;" edge="1" parent="1">
          <mxGeometry width="50" height="50" relative="1" as="geometry">
            <mxPoint x="300" y="515" as="sourcePoint" />
            <mxPoint x="310" y="485" as="targetPoint" />
          </mxGeometry>
        </mxCell>
        <mxCell id="JJUMkZbkKZCrO0z2hmZx-38" value="" style="endArrow=none;dashed=1;html=1;dashPattern=1 3;strokeWidth=2;rounded=1;strokeColor=#6c8ebf;fontFamily=Courier New;fillColor=#dae8fc;" edge="1" parent="1">
          <mxGeometry width="50" height="50" relative="1" as="geometry">
            <mxPoint x="310" y="484.86" as="sourcePoint" />
            <mxPoint x="420" y="485" as="targetPoint" />
          </mxGeometry>
        </mxCell>
        <mxCell id="JJUMkZbkKZCrO0z2hmZx-39" value="" style="endArrow=none;dashed=1;html=1;dashPattern=1 3;strokeWidth=2;rounded=1;strokeColor=#6c8ebf;fontFamily=Courier New;fillColor=#dae8fc;" edge="1" parent="1">
          <mxGeometry width="50" height="50" relative="1" as="geometry">
            <mxPoint x="300" y="519.72" as="sourcePoint" />
            <mxPoint x="410" y="519.86" as="targetPoint" />
          </mxGeometry>
        </mxCell>
        <mxCell id="JJUMkZbkKZCrO0z2hmZx-40" value="subwidth" style="text;html=1;align=center;verticalAlign=middle;resizable=0;points=[];autosize=1;strokeColor=none;fillColor=none;fontFamily=Courier New;fontSize=14;fontStyle=1" vertex="1" parent="1">
          <mxGeometry x="305" y="518" width="90" height="30" as="geometry" />
        </mxCell>
        <mxCell id="JJUMkZbkKZCrO0z2hmZx-41" value="mainwidth" style="text;html=1;align=center;verticalAlign=middle;resizable=0;points=[];autosize=1;strokeColor=none;fillColor=none;fontFamily=Courier New;fontSize=14;fontStyle=1" vertex="1" parent="1">
          <mxGeometry x="90" y="515" width="100" height="30" as="geometry" />
        </mxCell>
        <mxCell id="JJUMkZbkKZCrO0z2hmZx-42" value="0" style="text;html=1;align=center;verticalAlign=middle;resizable=0;points=[];autosize=1;strokeColor=none;fillColor=none;fontFamily=Courier New;fontSize=14;" vertex="1" parent="1">
          <mxGeometry x="425" y="558" width="30" height="30" as="geometry" />
        </mxCell>
        <mxCell id="JJUMkZbkKZCrO0z2hmZx-43" value="1" style="text;html=1;align=center;verticalAlign=middle;resizable=0;points=[];autosize=1;strokeColor=none;fillColor=none;fontFamily=Courier New;fontSize=14;" vertex="1" parent="1">
          <mxGeometry x="525" y="558" width="30" height="30" as="geometry" />
        </mxCell>
        <mxCell id="JJUMkZbkKZCrO0z2hmZx-44" value="2" style="text;html=1;align=center;verticalAlign=middle;resizable=0;points=[];autosize=1;strokeColor=none;fillColor=none;fontFamily=Courier New;fontSize=14;" vertex="1" parent="1">
          <mxGeometry x="525" y="515" width="30" height="30" as="geometry" />
        </mxCell>
        <mxCell id="JJUMkZbkKZCrO0z2hmZx-45" value="3" style="text;html=1;align=center;verticalAlign=middle;resizable=0;points=[];autosize=1;strokeColor=none;fillColor=none;fontFamily=Courier New;fontSize=14;" vertex="1" parent="1">
          <mxGeometry x="395" y="518" width="30" height="30" as="geometry" />
        </mxCell>
      </root>
    </mxGraphModel>
  </diagram>
</mxfile>
